<svg xmlns="http://www.w3.org/2000/svg" viewBox="0 0 1200 1500" width="1200" height="1500" role="img" preserveAspectRatio="xMidYMid slice"><defs><linearGradient id="bg" x1="0.24" y1="0.08" x2="0.76" y2="0.92"><stop offset="0%" stop-color="#E0D2C3"/><stop offset="100%" stop-color="#C5B2A1"/></linearGradient><radialGradient id="glow" cx="0.48" cy="0.22" r="0.74"><stop offset="0%" stop-color="#FFF4EA" stop-opacity="0.62"/><stop offset="100%" stop-color="#FFF4EA" stop-opacity="0"/></radialGradient><radialGradient id="vig" cx="0.5" cy="0.44" r="0.8"><stop offset="52%" stop-color="#000000" stop-opacity="0"/><stop offset="100%" stop-color="#000000" stop-opacity="0.14"/></radialGradient><clipPath id="fc1"><path d="M -110.18 2100 L -110.18 -67.23 C -110.18 -134.46, -66.11 -188.24, 0 -188.24 C 66.11 -188.24, 110.18 -134.46, 110.18 -67.23 L 110.18 2100 Z"/></clipPath><clipPath id="nc2"><path d="M -93.38 147.91 L -85.91 -134.46 Q -85.91 -168.07, -69.1 -168.07 L 69.1 -168.07 Q 85.91 -168.07, 85.91 -134.46 L 93.38 147.91 C 59.76 174.8, -59.76 174.8, -93.38 147.91 Z"/></clipPath><linearGradient id="fg3" x1="0.01" y1="0.4" x2="0.99" y2="0.6"><stop offset="0%" stop-color="#F0D5B6"/><stop offset="22%" stop-color="#D9B694"/><stop offset="62%" stop-color="#C29A76"/><stop offset="100%" stop-color="#9C7452"/></linearGradient><linearGradient id="fd4" x1="0.5" y1="0" x2="0.5" y2="1"><stop offset="0%" stop-color="#9C7452" stop-opacity="0"/><stop offset="62%" stop-color="#9C7452" stop-opacity="0.18"/><stop offset="100%" stop-color="#2A1E16" stop-opacity="0.44"/></linearGradient><linearGradient id="ng5" x1="0.57" y1="0.01" x2="0.43" y2="0.99"><stop offset="0%" stop-color="#DDCBBA"/><stop offset="50%" stop-color="#C3AC95"/><stop offset="100%" stop-color="#9E8672"/></linearGradient><linearGradient id="sh6" x1="0.4" y1="0.01" x2="0.6" y2="0.99"><stop offset="0%" stop-color="#ffffff" stop-opacity="0.7"/><stop offset="50%" stop-color="#ffffff" stop-opacity="0.14"/><stop offset="100%" stop-color="#ffffff" stop-opacity="0"/></linearGradient><linearGradient id="sp7" x1="0.5" y1="0" x2="0.5" y2="1"><stop offset="0%" stop-color="#ffffff" stop-opacity="0"/><stop offset="40%" stop-color="#ffffff" stop-opacity="0.8"/><stop offset="100%" stop-color="#ffffff" stop-opacity="0"/></linearGradient><linearGradient id="sd8" x1="0.5" y1="0" x2="0.5" y2="1"><stop offset="0%" stop-color="#1B1512" stop-opacity="0"/><stop offset="100%" stop-color="#1B1512" stop-opacity="0.11"/></linearGradient><radialGradient id="cu9" cx="0.5" cy="0.5" r="0.5"><stop offset="0%" stop-color="#3A2A20" stop-opacity="0.34"/><stop offset="100%" stop-color="#3A2A20" stop-opacity="0"/></radialGradient><radialGradient id="lu10" cx="0.5" cy="0.5" r="0.5"><stop offset="0%" stop-color="#FFFFFF" stop-opacity="0.2"/><stop offset="100%" stop-color="#FFFFFF" stop-opacity="0"/></radialGradient><radialGradient id="cs11" cx="0.5" cy="0.5" r="0.5"><stop offset="0%" stop-color="#2A211A" stop-opacity="0.44"/><stop offset="100%" stop-color="#2A211A" stop-opacity="0"/></radialGradient><clipPath id="fc12"><path d="M -127.44 2100 L -127.44 -77.76 C -127.44 -155.52, -76.46 -217.73, 0 -217.73 C 76.46 -217.73, 127.44 -155.52, 127.44 -77.76 L 127.44 2100 Z"/></clipPath><clipPath id="nc13"><path d="M -108 171.07 L -99.36 -155.52 Q -99.36 -194.4, -79.92 -194.4 L 79.92 -194.4 Q 99.36 -194.4, 99.36 -155.52 L 108 171.07 C 69.12 202.18, -69.12 202.18, -108 171.07 Z"/></clipPath><linearGradient id="fg14" x1="0.01" y1="0.4" x2="0.99" y2="0.6"><stop offset="0%" stop-color="#F0D5B6"/><stop offset="22%" stop-color="#D9B694"/><stop offset="62%" stop-color="#C29A76"/><stop offset="100%" stop-color="#9C7452"/></linearGradient><linearGradient id="fd15" x1="0.5" y1="0" x2="0.5" y2="1"><stop offset="0%" stop-color="#9C7452" stop-opacity="0"/><stop offset="62%" stop-color="#9C7452" stop-opacity="0.18"/><stop offset="100%" stop-color="#2A1E16" stop-opacity="0.44"/></linearGradient><linearGradient id="ng16" x1="0.65" y1="0.02" x2="0.35" y2="0.98"><stop offset="0%" stop-color="#DDCBBA"/><stop offset="50%" stop-color="#C3AC95"/><stop offset="100%" stop-color="#9E8672"/></linearGradient><linearGradient id="sh17" x1="0.4" y1="0.01" x2="0.6" y2="0.99"><stop offset="0%" stop-color="#ffffff" stop-opacity="0.7"/><stop offset="50%" stop-color="#ffffff" stop-opacity="0.14"/><stop offset="100%" stop-color="#ffffff" stop-opacity="0"/></linearGradient><linearGradient id="sp18" x1="0.5" y1="0" x2="0.5" y2="1"><stop offset="0%" stop-color="#ffffff" stop-opacity="0"/><stop offset="40%" stop-color="#ffffff" stop-opacity="0.8"/><stop offset="100%" stop-color="#ffffff" stop-opacity="0"/></linearGradient><linearGradient id="sd19" x1="0.5" y1="0" x2="0.5" y2="1"><stop offset="0%" stop-color="#1B1512" stop-opacity="0"/><stop offset="100%" stop-color="#1B1512" stop-opacity="0.11"/></linearGradient><radialGradient id="cu20" cx="0.5" cy="0.5" r="0.5"><stop offset="0%" stop-color="#3A2A20" stop-opacity="0.34"/><stop offset="100%" stop-color="#3A2A20" stop-opacity="0"/></radialGradient><radialGradient id="lu21" cx="0.5" cy="0.5" r="0.5"><stop offset="0%" stop-color="#FFFFFF" stop-opacity="0.2"/><stop offset="100%" stop-color="#FFFFFF" stop-opacity="0"/></radialGradient><radialGradient id="cs22" cx="0.5" cy="0.5" r="0.5"><stop offset="0%" stop-color="#2A211A" stop-opacity="0.44"/><stop offset="100%" stop-color="#2A211A" stop-opacity="0"/></radialGradient><clipPath id="fc23"><path d="M -130.09 2100 L -130.09 -79.38 C -130.09 -158.76, -78.06 -222.26, 0 -222.26 C 78.06 -222.26, 130.09 -158.76, 130.09 -79.38 L 130.09 2100 Z"/></clipPath><clipPath id="nc24"><path d="M -110.25 174.64 L -101.43 -158.76 Q -101.43 -198.45, -81.58 -198.45 L 81.58 -198.45 Q 101.43 -198.45, 101.43 -158.76 L 110.25 174.64 C 70.56 206.39, -70.56 206.39, -110.25 174.64 Z"/></clipPath><linearGradient id="fg25" x1="0.01" y1="0.4" x2="0.99" y2="0.6"><stop offset="0%" stop-color="#F0D5B6"/><stop offset="22%" stop-color="#D9B694"/><stop offset="62%" stop-color="#C29A76"/><stop offset="100%" stop-color="#9C7452"/></linearGradient><linearGradient id="fd26" x1="0.5" y1="0" x2="0.5" y2="1"><stop offset="0%" stop-color="#9C7452" stop-opacity="0"/><stop offset="62%" stop-color="#9C7452" stop-opacity="0.18"/><stop offset="100%" stop-color="#2A1E16" stop-opacity="0.44"/></linearGradient><linearGradient id="ng27" x1="0.72" y1="0.05" x2="0.28" y2="0.95"><stop offset="0%" stop-color="#DDCBBA"/><stop offset="50%" stop-color="#C3AC95"/><stop offset="100%" stop-color="#9E8672"/></linearGradient><linearGradient id="sh28" x1="0.4" y1="0.01" x2="0.6" y2="0.99"><stop offset="0%" stop-color="#ffffff" stop-opacity="0.7"/><stop offset="50%" stop-color="#ffffff" stop-opacity="0.14"/><stop offset="100%" stop-color="#ffffff" stop-opacity="0"/></linearGradient><linearGradient id="sp29" x1="0.5" y1="0" x2="0.5" y2="1"><stop offset="0%" stop-color="#ffffff" stop-opacity="0"/><stop offset="40%" stop-color="#ffffff" stop-opacity="0.8"/><stop offset="100%" stop-color="#ffffff" stop-opacity="0"/></linearGradient><linearGradient id="sd30" x1="0.5" y1="0" x2="0.5" y2="1"><stop offset="0%" stop-color="#1B1512" stop-opacity="0"/><stop offset="100%" stop-color="#1B1512" stop-opacity="0.11"/></linearGradient><radialGradient id="cu31" cx="0.5" cy="0.5" r="0.5"><stop offset="0%" stop-color="#3A2A20" stop-opacity="0.34"/><stop offset="100%" stop-color="#3A2A20" stop-opacity="0"/></radialGradient><radialGradient id="lu32" cx="0.5" cy="0.5" r="0.5"><stop offset="0%" stop-color="#FFFFFF" stop-opacity="0.2"/><stop offset="100%" stop-color="#FFFFFF" stop-opacity="0"/></radialGradient><radialGradient id="cs33" cx="0.5" cy="0.5" r="0.5"><stop offset="0%" stop-color="#2A211A" stop-opacity="0.44"/><stop offset="100%" stop-color="#2A211A" stop-opacity="0"/></radialGradient><clipPath id="fc34"><path d="M -112.84 2100 L -112.84 -68.85 C -112.84 -137.7, -67.7 -192.78, 0 -192.78 C 67.7 -192.78, 112.84 -137.7, 112.84 -68.85 L 112.84 2100 Z"/></clipPath><clipPath id="nc35"><path d="M -95.63 151.47 L -87.98 -137.7 Q -87.98 -172.13, -70.76 -172.13 L 70.76 -172.13 Q 87.98 -172.13, 87.98 -137.7 L 95.63 151.47 C 61.2 179.01, -61.2 179.01, -95.63 151.47 Z"/></clipPath><linearGradient id="fg36" x1="0.01" y1="0.4" x2="0.99" y2="0.6"><stop offset="0%" stop-color="#F0D5B6"/><stop offset="22%" stop-color="#D9B694"/><stop offset="62%" stop-color="#C29A76"/><stop offset="100%" stop-color="#9C7452"/></linearGradient><linearGradient id="fd37" x1="0.5" y1="0" x2="0.5" y2="1"><stop offset="0%" stop-color="#9C7452" stop-opacity="0"/><stop offset="62%" stop-color="#9C7452" stop-opacity="0.18"/><stop offset="100%" stop-color="#2A1E16" stop-opacity="0.44"/></linearGradient><linearGradient id="ng38" x1="0.79" y1="0.09" x2="0.21" y2="0.91"><stop offset="0%" stop-color="#DDCBBA"/><stop offset="50%" stop-color="#C3AC95"/><stop offset="100%" stop-color="#9E8672"/></linearGradient><linearGradient id="sh39" x1="0.4" y1="0.01" x2="0.6" y2="0.99"><stop offset="0%" stop-color="#ffffff" stop-opacity="0.7"/><stop offset="50%" stop-color="#ffffff" stop-opacity="0.14"/><stop offset="100%" stop-color="#ffffff" stop-opacity="0"/></linearGradient><linearGradient id="sp40" x1="0.5" y1="0" x2="0.5" y2="1"><stop offset="0%" stop-color="#ffffff" stop-opacity="0"/><stop offset="40%" stop-color="#ffffff" stop-opacity="0.8"/><stop offset="100%" stop-color="#ffffff" stop-opacity="0"/></linearGradient><linearGradient id="sd41" x1="0.5" y1="0" x2="0.5" y2="1"><stop offset="0%" stop-color="#1B1512" stop-opacity="0"/><stop offset="100%" stop-color="#1B1512" stop-opacity="0.11"/></linearGradient><radialGradient id="cu42" cx="0.5" cy="0.5" r="0.5"><stop offset="0%" stop-color="#3A2A20" stop-opacity="0.34"/><stop offset="100%" stop-color="#3A2A20" stop-opacity="0"/></radialGradient><radialGradient id="lu43" cx="0.5" cy="0.5" r="0.5"><stop offset="0%" stop-color="#FFFFFF" stop-opacity="0.2"/><stop offset="100%" stop-color="#FFFFFF" stop-opacity="0"/></radialGradient><radialGradient id="cs44" cx="0.5" cy="0.5" r="0.5"><stop offset="0%" stop-color="#2A211A" stop-opacity="0.44"/><stop offset="100%" stop-color="#2A211A" stop-opacity="0"/></radialGradient></defs><rect width="1200" height="1500" fill="url(#bg)"/><rect width="1200" height="1500" fill="url(#glow)"/><line x1="0" y1="1140" x2="1200" y2="1140" stroke="#191817" stroke-opacity="0.11" stroke-width="1"/>
    <g transform="translate(250.4 765) rotate(-19)">
      <ellipse cx="74.92" cy="33.62" rx="209.35" ry="302.53" fill="url(#cs11)"/>
      <g clip-path="url(#fc1)">
        <rect x="-220.36" y="-336.15" width="440.73" height="2772.3" fill="url(#fg3)"/>
        <rect x="-220.36" y="-336.15" width="440.73" height="2772.3" fill="url(#fd4)"/>
        <ellipse cx="-74.92" cy="33.62" rx="44.07" ry="235.3" fill="#F0D5B6" opacity="0.28"/>
        <rect x="-220.36" y="-268.92" width="440.73" height="2436.15" fill="#2A211A" opacity="0.11"/>
      </g>
      <path d="M -110.18 2100 L -110.18 -67.23 C -110.18 -134.46, -66.11 -188.24, 0 -188.24 C 66.11 -188.24, 110.18 -134.46, 110.18 -67.23 L 110.18 2100 Z" fill="none" stroke="#F0D5B6" stroke-opacity="0.3" stroke-width="1.87"/>
      <ellipse cx="0" cy="168.07" rx="115.78" ry="53.78" fill="url(#cu9)"/>
      <g clip-path="url(#nc2)">
        <rect x="-186.75" y="-336.15" width="373.5" height="672.3" fill="url(#ng5)"/>
        <ellipse cx="-29.88" cy="-67.23" rx="85.91" ry="168.07" fill="url(#sh6)" transform="rotate(-8 -29.88 -67.23)"/>
        <rect x="20.54" y="-141.18" width="13.07" height="262.2" rx="6.54" fill="url(#sp7)" opacity="0.55"/>
        <ellipse cx="0" cy="127.74" rx="78.44" ry="30.25" fill="url(#lu10)"/>
        <rect x="-186.75" y="20.17" width="373.5" height="168.07" fill="url(#sd8)"/>
        <rect x="-220.36" y="-268.92" width="440.73" height="2436.15" fill="#2A211A" opacity="0.11"/>
      </g>
      <path d="M -93.38 147.91 L -85.91 -134.46 Q -85.91 -168.07, -69.1 -168.07 L 69.1 -168.07 Q 85.91 -168.07, 85.91 -134.46 L 93.38 147.91 C 59.76 174.8, -59.76 174.8, -93.38 147.91 Z" fill="none" stroke="#F8ECE0" stroke-opacity="0.4" stroke-width="2.05"/>
    </g>
    <g transform="translate(480.4 665) rotate(-7)">
      <ellipse cx="86.66" cy="38.88" rx="242.14" ry="349.92" fill="url(#cs22)"/>
      <g clip-path="url(#fc12)">
        <rect x="-254.88" y="-388.8" width="509.76" height="2877.6" fill="url(#fg14)"/>
        <rect x="-254.88" y="-388.8" width="509.76" height="2877.6" fill="url(#fd15)"/>
        <ellipse cx="-86.66" cy="38.88" rx="50.98" ry="272.16" fill="#F0D5B6" opacity="0.28"/>
        <rect x="-254.88" y="-311.04" width="509.76" height="2488.8" fill="#2A211A" opacity="0.03"/>
      </g>
      <path d="M -127.44 2100 L -127.44 -77.76 C -127.44 -155.52, -76.46 -217.73, 0 -217.73 C 76.46 -217.73, 127.44 -155.52, 127.44 -77.76 L 127.44 2100 Z" fill="none" stroke="#F0D5B6" stroke-opacity="0.3" stroke-width="2.16"/>
      <ellipse cx="0" cy="194.4" rx="133.92" ry="62.21" fill="url(#cu20)"/>
      <g clip-path="url(#nc13)">
        <rect x="-216" y="-388.8" width="432" height="777.6" fill="url(#ng16)"/>
        <ellipse cx="-34.56" cy="-77.76" rx="99.36" ry="194.4" fill="url(#sh17)" transform="rotate(-8 -34.56 -77.76)"/>
        <rect x="23.76" y="-163.3" width="15.12" height="303.26" rx="7.56" fill="url(#sp18)" opacity="0.55"/>
        <ellipse cx="0" cy="147.74" rx="90.72" ry="34.99" fill="url(#lu21)"/>
        <rect x="-216" y="23.33" width="432" height="194.4" fill="url(#sd19)"/>
        <rect x="-254.88" y="-311.04" width="509.76" height="2488.8" fill="#2A211A" opacity="0.03"/>
      </g>
      <path d="M -108 171.07 L -99.36 -155.52 Q -99.36 -194.4, -79.92 -194.4 L 79.92 -194.4 Q 99.36 -194.4, 99.36 -155.52 L 108 171.07 C 69.12 202.18, -69.12 202.18, -108 171.07 Z" fill="none" stroke="#F8ECE0" stroke-opacity="0.4" stroke-width="2.38"/>
    </g>
    <g transform="translate(715 675) rotate(5)">
      <ellipse cx="88.46" cy="39.69" rx="247.18" ry="357.21" fill="url(#cs33)"/>
      <g clip-path="url(#fc23)">
        <rect x="-260.19" y="-396.9" width="520.38" height="2893.8" fill="url(#fg25)"/>
        <rect x="-260.19" y="-396.9" width="520.38" height="2893.8" fill="url(#fd26)"/>
        <ellipse cx="-88.46" cy="39.69" rx="52.04" ry="277.83" fill="#F0D5B6" opacity="0.28"/>
        <rect x="-260.19" y="-317.52" width="520.38" height="2496.9" fill="#2A211A" opacity="0.02"/>
      </g>
      <path d="M -130.09 2100 L -130.09 -79.38 C -130.09 -158.76, -78.06 -222.26, 0 -222.26 C 78.06 -222.26, 130.09 -158.76, 130.09 -79.38 L 130.09 2100 Z" fill="none" stroke="#F0D5B6" stroke-opacity="0.3" stroke-width="2.21"/>
      <ellipse cx="0" cy="198.45" rx="136.71" ry="63.5" fill="url(#cu31)"/>
      <g clip-path="url(#nc24)">
        <rect x="-220.5" y="-396.9" width="441" height="793.8" fill="url(#ng27)"/>
        <ellipse cx="-35.28" cy="-79.38" rx="101.43" ry="198.45" fill="url(#sh28)" transform="rotate(-8 -35.28 -79.38)"/>
        <rect x="24.25" y="-166.7" width="15.44" height="309.58" rx="7.72" fill="url(#sp29)" opacity="0.55"/>
        <ellipse cx="0" cy="150.82" rx="92.61" ry="35.72" fill="url(#lu32)"/>
        <rect x="-220.5" y="23.81" width="441" height="198.45" fill="url(#sd30)"/>
        <rect x="-260.19" y="-317.52" width="520.38" height="2496.9" fill="#2A211A" opacity="0.02"/>
      </g>
      <path d="M -110.25 174.64 L -101.43 -158.76 Q -101.43 -198.45, -81.58 -198.45 L 81.58 -198.45 Q 101.43 -198.45, 101.43 -158.76 L 110.25 174.64 C 70.56 206.39, -70.56 206.39, -110.25 174.64 Z" fill="none" stroke="#F8ECE0" stroke-opacity="0.4" stroke-width="2.43"/>
    </g>
    <g transform="translate(945 755) rotate(17)">
      <ellipse cx="76.73" cy="34.43" rx="214.39" ry="309.82" fill="url(#cs44)"/>
      <g clip-path="url(#fc34)">
        <rect x="-225.67" y="-344.25" width="451.35" height="2788.5" fill="url(#fg36)"/>
        <rect x="-225.67" y="-344.25" width="451.35" height="2788.5" fill="url(#fd37)"/>
        <ellipse cx="-76.73" cy="34.43" rx="45.13" ry="240.97" fill="#F0D5B6" opacity="0.28"/>
        <rect x="-225.67" y="-275.4" width="451.35" height="2444.25" fill="#2A211A" opacity="0.1"/>
      </g>
      <path d="M -112.84 2100 L -112.84 -68.85 C -112.84 -137.7, -67.7 -192.78, 0 -192.78 C 67.7 -192.78, 112.84 -137.7, 112.84 -68.85 L 112.84 2100 Z" fill="none" stroke="#F0D5B6" stroke-opacity="0.3" stroke-width="1.91"/>
      <ellipse cx="0" cy="172.13" rx="118.58" ry="55.08" fill="url(#cu42)"/>
      <g clip-path="url(#nc35)">
        <rect x="-191.25" y="-344.25" width="382.5" height="688.5" fill="url(#ng38)"/>
        <ellipse cx="-30.6" cy="-68.85" rx="87.98" ry="172.13" fill="url(#sh39)" transform="rotate(-8 -30.6 -68.85)"/>
        <rect x="21.04" y="-144.59" width="13.39" height="268.51" rx="6.69" fill="url(#sp40)" opacity="0.55"/>
        <ellipse cx="0" cy="130.81" rx="80.33" ry="30.98" fill="url(#lu43)"/>
        <rect x="-191.25" y="20.65" width="382.5" height="172.13" fill="url(#sd41)"/>
        <rect x="-225.67" y="-275.4" width="451.35" height="2444.25" fill="#2A211A" opacity="0.1"/>
      </g>
      <path d="M -95.63 151.47 L -87.98 -137.7 Q -87.98 -172.13, -70.76 -172.13 L 70.76 -172.13 Q 87.98 -172.13, 87.98 -137.7 L 95.63 151.47 C 61.2 179.01, -61.2 179.01, -95.63 151.47 Z" fill="none" stroke="#F8ECE0" stroke-opacity="0.4" stroke-width="2.1"/>
    </g><rect width="1200" height="1500" fill="url(#vig)"/></svg>