<svg xmlns="http://www.w3.org/2000/svg" viewBox="0 0 1200 1500" width="1200" height="1500" role="img" preserveAspectRatio="xMidYMid slice"><defs><linearGradient id="bg" x1="0.24" y1="0.08" x2="0.76" y2="0.92"><stop offset="0%" stop-color="#F7F4EF"/><stop offset="100%" stop-color="#EAE3DA"/></linearGradient><radialGradient id="glow" cx="0.4" cy="0.24" r="0.72"><stop offset="0%" stop-color="#FFFFFF" stop-opacity="0.78"/><stop offset="100%" stop-color="#FFFFFF" stop-opacity="0"/></radialGradient><radialGradient id="vig" cx="0.5" cy="0.44" r="0.8"><stop offset="52%" stop-color="#000000" stop-opacity="0"/><stop offset="100%" stop-color="#000000" stop-opacity="0.14"/></radialGradient><clipPath id="fc1"><path d="M -100.89 2100 L -100.89 -61.56 C -100.89 -123.12, -60.53 -172.37, 0 -172.37 C 60.53 -172.37, 100.89 -123.12, 100.89 -61.56 L 100.89 2100 Z"/></clipPath><clipPath id="nc2"><path d="M -85.5 135.43 C -85.5 -12.31, -70.11 -101.57, -25.65 -141.59 Q 0 -156.98, 25.65 -141.59 C 70.11 -101.57, 85.5 -12.31, 85.5 135.43 C 54.72 160.06, -54.72 160.06, -85.5 135.43 Z"/></clipPath><linearGradient id="fg3" x1="0.01" y1="0.4" x2="0.99" y2="0.6"><stop offset="0%" stop-color="#FBEADC"/><stop offset="22%" stop-color="#EAD2BC"/><stop offset="62%" stop-color="#D9B99F"/><stop offset="100%" stop-color="#B89174"/></linearGradient><linearGradient id="fd4" x1="0.5" y1="0" x2="0.5" y2="1"><stop offset="0%" stop-color="#B89174" stop-opacity="0"/><stop offset="62%" stop-color="#B89174" stop-opacity="0.18"/><stop offset="100%" stop-color="#2A1E16" stop-opacity="0.44"/></linearGradient><linearGradient id="ng5" x1="0.53" y1="0" x2="0.47" y2="1"><stop offset="0%" stop-color="#F1DFD0"/><stop offset="50%" stop-color="#E0C4AE"/><stop offset="100%" stop-color="#C6A78E"/></linearGradient><linearGradient id="sh6" x1="0.4" y1="0.01" x2="0.6" y2="0.99"><stop offset="0%" stop-color="#ffffff" stop-opacity="0.7"/><stop offset="50%" stop-color="#ffffff" stop-opacity="0.14"/><stop offset="100%" stop-color="#ffffff" stop-opacity="0"/></linearGradient><linearGradient id="sp7" x1="0.5" y1="0" x2="0.5" y2="1"><stop offset="0%" stop-color="#ffffff" stop-opacity="0"/><stop offset="40%" stop-color="#ffffff" stop-opacity="0.8"/><stop offset="100%" stop-color="#ffffff" stop-opacity="0"/></linearGradient><linearGradient id="sd8" x1="0.5" y1="0" x2="0.5" y2="1"><stop offset="0%" stop-color="#1B1512" stop-opacity="0"/><stop offset="100%" stop-color="#1B1512" stop-opacity="0.11"/></linearGradient><radialGradient id="cu9" cx="0.5" cy="0.5" r="0.5"><stop offset="0%" stop-color="#3A2A20" stop-opacity="0.34"/><stop offset="100%" stop-color="#3A2A20" stop-opacity="0"/></radialGradient><radialGradient id="lu10" cx="0.5" cy="0.5" r="0.5"><stop offset="0%" stop-color="#FFFFFF" stop-opacity="0.2"/><stop offset="100%" stop-color="#FFFFFF" stop-opacity="0"/></radialGradient><radialGradient id="cs11" cx="0.5" cy="0.5" r="0.5"><stop offset="0%" stop-color="#2A211A" stop-opacity="0.44"/><stop offset="100%" stop-color="#2A211A" stop-opacity="0"/></radialGradient><clipPath id="fc12"><path d="M -119.47 2100 L -119.47 -72.9 C -119.47 -145.8, -71.68 -204.12, 0 -204.12 C 71.68 -204.12, 119.47 -145.8, 119.47 -72.9 L 119.47 2100 Z"/></clipPath><clipPath id="nc13"><path d="M -101.25 160.38 C -101.25 -14.58, -83.02 -120.29, -30.38 -167.67 Q 0 -185.9, 30.38 -167.67 C 83.02 -120.29, 101.25 -14.58, 101.25 160.38 C 64.8 189.54, -64.8 189.54, -101.25 160.38 Z"/></clipPath><linearGradient id="fg14" x1="0.01" y1="0.4" x2="0.99" y2="0.6"><stop offset="0%" stop-color="#FBEADC"/><stop offset="22%" stop-color="#EAD2BC"/><stop offset="62%" stop-color="#D9B99F"/><stop offset="100%" stop-color="#B89174"/></linearGradient><linearGradient id="fd15" x1="0.5" y1="0" x2="0.5" y2="1"><stop offset="0%" stop-color="#B89174" stop-opacity="0"/><stop offset="62%" stop-color="#B89174" stop-opacity="0.18"/><stop offset="100%" stop-color="#2A1E16" stop-opacity="0.44"/></linearGradient><linearGradient id="ng16" x1="0.61" y1="0.01" x2="0.39" y2="0.99"><stop offset="0%" stop-color="#F1DFD0"/><stop offset="50%" stop-color="#E0C4AE"/><stop offset="100%" stop-color="#C6A78E"/></linearGradient><linearGradient id="sh17" x1="0.4" y1="0.01" x2="0.6" y2="0.99"><stop offset="0%" stop-color="#ffffff" stop-opacity="0.7"/><stop offset="50%" stop-color="#ffffff" stop-opacity="0.14"/><stop offset="100%" stop-color="#ffffff" stop-opacity="0"/></linearGradient><linearGradient id="sp18" x1="0.5" y1="0" x2="0.5" y2="1"><stop offset="0%" stop-color="#ffffff" stop-opacity="0"/><stop offset="40%" stop-color="#ffffff" stop-opacity="0.8"/><stop offset="100%" stop-color="#ffffff" stop-opacity="0"/></linearGradient><linearGradient id="sd19" x1="0.5" y1="0" x2="0.5" y2="1"><stop offset="0%" stop-color="#1B1512" stop-opacity="0"/><stop offset="100%" stop-color="#1B1512" stop-opacity="0.11"/></linearGradient><radialGradient id="cu20" cx="0.5" cy="0.5" r="0.5"><stop offset="0%" stop-color="#3A2A20" stop-opacity="0.34"/><stop offset="100%" stop-color="#3A2A20" stop-opacity="0"/></radialGradient><radialGradient id="lu21" cx="0.5" cy="0.5" r="0.5"><stop offset="0%" stop-color="#FFFFFF" stop-opacity="0.2"/><stop offset="100%" stop-color="#FFFFFF" stop-opacity="0"/></radialGradient><radialGradient id="cs22" cx="0.5" cy="0.5" r="0.5"><stop offset="0%" stop-color="#2A211A" stop-opacity="0.44"/><stop offset="100%" stop-color="#2A211A" stop-opacity="0"/></radialGradient><clipPath id="fc23"><path d="M -132.75 2100 L -132.75 -81 C -132.75 -162, -79.65 -226.8, 0 -226.8 C 79.65 -226.8, 132.75 -162, 132.75 -81 L 132.75 2100 Z"/></clipPath><clipPath id="nc24"><path d="M -112.5 178.2 C -112.5 -16.2, -92.25 -133.65, -33.75 -186.3 Q 0 -206.55, 33.75 -186.3 C 92.25 -133.65, 112.5 -16.2, 112.5 178.2 C 72 210.6, -72 210.6, -112.5 178.2 Z"/></clipPath><linearGradient id="fg25" x1="0.01" y1="0.4" x2="0.99" y2="0.6"><stop offset="0%" stop-color="#FBEADC"/><stop offset="22%" stop-color="#EAD2BC"/><stop offset="62%" stop-color="#D9B99F"/><stop offset="100%" stop-color="#B89174"/></linearGradient><linearGradient id="fd26" x1="0.5" y1="0" x2="0.5" y2="1"><stop offset="0%" stop-color="#B89174" stop-opacity="0"/><stop offset="62%" stop-color="#B89174" stop-opacity="0.18"/><stop offset="100%" stop-color="#2A1E16" stop-opacity="0.44"/></linearGradient><linearGradient id="ng27" x1="0.69" y1="0.04" x2="0.31" y2="0.96"><stop offset="0%" stop-color="#F1DFD0"/><stop offset="50%" stop-color="#E0C4AE"/><stop offset="100%" stop-color="#C6A78E"/></linearGradient><linearGradient id="sh28" x1="0.4" y1="0.01" x2="0.6" y2="0.99"><stop offset="0%" stop-color="#ffffff" stop-opacity="0.7"/><stop offset="50%" stop-color="#ffffff" stop-opacity="0.14"/><stop offset="100%" stop-color="#ffffff" stop-opacity="0"/></linearGradient><linearGradient id="sp29" x1="0.5" y1="0" x2="0.5" y2="1"><stop offset="0%" stop-color="#ffffff" stop-opacity="0"/><stop offset="40%" stop-color="#ffffff" stop-opacity="0.8"/><stop offset="100%" stop-color="#ffffff" stop-opacity="0"/></linearGradient><linearGradient id="sd30" x1="0.5" y1="0" x2="0.5" y2="1"><stop offset="0%" stop-color="#1B1512" stop-opacity="0"/><stop offset="100%" stop-color="#1B1512" stop-opacity="0.11"/></linearGradient><radialGradient id="cu31" cx="0.5" cy="0.5" r="0.5"><stop offset="0%" stop-color="#3A2A20" stop-opacity="0.34"/><stop offset="100%" stop-color="#3A2A20" stop-opacity="0"/></radialGradient><radialGradient id="lu32" cx="0.5" cy="0.5" r="0.5"><stop offset="0%" stop-color="#FFFFFF" stop-opacity="0.2"/><stop offset="100%" stop-color="#FFFFFF" stop-opacity="0"/></radialGradient><radialGradient id="cs33" cx="0.5" cy="0.5" r="0.5"><stop offset="0%" stop-color="#2A211A" stop-opacity="0.44"/><stop offset="100%" stop-color="#2A211A" stop-opacity="0"/></radialGradient><clipPath id="fc34"><path d="M -118.15 2100 L -118.15 -72.09 C -118.15 -144.18, -70.89 -201.85, 0 -201.85 C 70.89 -201.85, 118.15 -144.18, 118.15 -72.09 L 118.15 2100 Z"/></clipPath><clipPath id="nc35"><path d="M -100.13 158.6 C -100.13 -14.42, -82.1 -118.95, -30.04 -165.81 Q 0 -183.83, 30.04 -165.81 C 82.1 -118.95, 100.13 -14.42, 100.13 158.6 C 64.08 187.43, -64.08 187.43, -100.13 158.6 Z"/></clipPath><linearGradient id="fg36" x1="0.01" y1="0.4" x2="0.99" y2="0.6"><stop offset="0%" stop-color="#FBEADC"/><stop offset="22%" stop-color="#EAD2BC"/><stop offset="62%" stop-color="#D9B99F"/><stop offset="100%" stop-color="#B89174"/></linearGradient><linearGradient id="fd37" x1="0.5" y1="0" x2="0.5" y2="1"><stop offset="0%" stop-color="#B89174" stop-opacity="0"/><stop offset="62%" stop-color="#B89174" stop-opacity="0.18"/><stop offset="100%" stop-color="#2A1E16" stop-opacity="0.44"/></linearGradient><linearGradient id="ng38" x1="0.76" y1="0.07" x2="0.24" y2="0.93"><stop offset="0%" stop-color="#F1DFD0"/><stop offset="50%" stop-color="#E0C4AE"/><stop offset="100%" stop-color="#C6A78E"/></linearGradient><linearGradient id="sh39" x1="0.4" y1="0.01" x2="0.6" y2="0.99"><stop offset="0%" stop-color="#ffffff" stop-opacity="0.7"/><stop offset="50%" stop-color="#ffffff" stop-opacity="0.14"/><stop offset="100%" stop-color="#ffffff" stop-opacity="0"/></linearGradient><linearGradient id="sp40" x1="0.5" y1="0" x2="0.5" y2="1"><stop offset="0%" stop-color="#ffffff" stop-opacity="0"/><stop offset="40%" stop-color="#ffffff" stop-opacity="0.8"/><stop offset="100%" stop-color="#ffffff" stop-opacity="0"/></linearGradient><linearGradient id="sd41" x1="0.5" y1="0" x2="0.5" y2="1"><stop offset="0%" stop-color="#1B1512" stop-opacity="0"/><stop offset="100%" stop-color="#1B1512" stop-opacity="0.11"/></linearGradient><radialGradient id="cu42" cx="0.5" cy="0.5" r="0.5"><stop offset="0%" stop-color="#3A2A20" stop-opacity="0.34"/><stop offset="100%" stop-color="#3A2A20" stop-opacity="0"/></radialGradient><radialGradient id="lu43" cx="0.5" cy="0.5" r="0.5"><stop offset="0%" stop-color="#FFFFFF" stop-opacity="0.2"/><stop offset="100%" stop-color="#FFFFFF" stop-opacity="0"/></radialGradient><radialGradient id="cs44" cx="0.5" cy="0.5" r="0.5"><stop offset="0%" stop-color="#2A211A" stop-opacity="0.44"/><stop offset="100%" stop-color="#2A211A" stop-opacity="0"/></radialGradient><clipPath id="fc45"><path d="M -98.23 2100 L -98.23 -59.94 C -98.23 -119.88, -58.94 -167.83, 0 -167.83 C 58.94 -167.83, 98.23 -119.88, 98.23 -59.94 L 98.23 2100 Z"/></clipPath><clipPath id="nc46"><path d="M -83.25 131.87 C -83.25 -11.99, -68.27 -98.9, -24.97 -137.86 Q 0 -152.85, 24.97 -137.86 C 68.27 -98.9, 83.25 -11.99, 83.25 131.87 C 53.28 155.84, -53.28 155.84, -83.25 131.87 Z"/></clipPath><linearGradient id="fg47" x1="0.01" y1="0.4" x2="0.99" y2="0.6"><stop offset="0%" stop-color="#FBEADC"/><stop offset="22%" stop-color="#EAD2BC"/><stop offset="62%" stop-color="#D9B99F"/><stop offset="100%" stop-color="#B89174"/></linearGradient><linearGradient id="fd48" x1="0.5" y1="0" x2="0.5" y2="1"><stop offset="0%" stop-color="#B89174" stop-opacity="0"/><stop offset="62%" stop-color="#B89174" stop-opacity="0.18"/><stop offset="100%" stop-color="#2A1E16" stop-opacity="0.44"/></linearGradient><linearGradient id="ng49" x1="0.82" y1="0.12" x2="0.18" y2="0.88"><stop offset="0%" stop-color="#F1DFD0"/><stop offset="50%" stop-color="#E0C4AE"/><stop offset="100%" stop-color="#C6A78E"/></linearGradient><linearGradient id="sh50" x1="0.4" y1="0.01" x2="0.6" y2="0.99"><stop offset="0%" stop-color="#ffffff" stop-opacity="0.7"/><stop offset="50%" stop-color="#ffffff" stop-opacity="0.14"/><stop offset="100%" stop-color="#ffffff" stop-opacity="0"/></linearGradient><linearGradient id="sp51" x1="0.5" y1="0" x2="0.5" y2="1"><stop offset="0%" stop-color="#ffffff" stop-opacity="0"/><stop offset="40%" stop-color="#ffffff" stop-opacity="0.8"/><stop offset="100%" stop-color="#ffffff" stop-opacity="0"/></linearGradient><linearGradient id="sd52" x1="0.5" y1="0" x2="0.5" y2="1"><stop offset="0%" stop-color="#1B1512" stop-opacity="0"/><stop offset="100%" stop-color="#1B1512" stop-opacity="0.11"/></linearGradient><radialGradient id="cu53" cx="0.5" cy="0.5" r="0.5"><stop offset="0%" stop-color="#3A2A20" stop-opacity="0.34"/><stop offset="100%" stop-color="#3A2A20" stop-opacity="0"/></radialGradient><radialGradient id="lu54" cx="0.5" cy="0.5" r="0.5"><stop offset="0%" stop-color="#FFFFFF" stop-opacity="0.2"/><stop offset="100%" stop-color="#FFFFFF" stop-opacity="0"/></radialGradient><radialGradient id="cs55" cx="0.5" cy="0.5" r="0.5"><stop offset="0%" stop-color="#2A211A" stop-opacity="0.44"/><stop offset="100%" stop-color="#2A211A" stop-opacity="0"/></radialGradient></defs><rect width="1200" height="1500" fill="url(#bg)"/><rect width="1200" height="1500" fill="url(#glow)"/><line x1="130" y1="0" x2="130" y2="1500" stroke="#191817" stroke-opacity="0.07" stroke-width="1"/>
    <g transform="translate(155.4 805) rotate(-25)">
      <ellipse cx="68.61" cy="30.78" rx="191.69" ry="277.02" fill="url(#cs11)"/>
      <g clip-path="url(#fc1)">
        <rect x="-201.78" y="-307.8" width="403.56" height="2715.6" fill="url(#fg3)"/>
        <rect x="-201.78" y="-307.8" width="403.56" height="2715.6" fill="url(#fd4)"/>
        <ellipse cx="-68.61" cy="30.78" rx="40.36" ry="215.46" fill="#FBEADC" opacity="0.28"/>
        <rect x="-201.78" y="-246.24" width="403.56" height="2407.8" fill="#2A211A" opacity="0.15"/>
      </g>
      <path d="M -100.89 2100 L -100.89 -61.56 C -100.89 -123.12, -60.53 -172.37, 0 -172.37 C 60.53 -172.37, 100.89 -123.12, 100.89 -61.56 L 100.89 2100 Z" fill="none" stroke="#FBEADC" stroke-opacity="0.3" stroke-width="1.71"/>
      <ellipse cx="0" cy="153.9" rx="106.02" ry="49.25" fill="url(#cu9)"/>
      <g clip-path="url(#nc2)">
        <rect x="-171" y="-307.8" width="342" height="615.6" fill="url(#ng5)"/>
        <ellipse cx="-27.36" cy="-61.56" rx="78.66" ry="153.9" fill="url(#sh6)" transform="rotate(-8 -27.36 -61.56)"/>
        <rect x="18.81" y="-129.28" width="11.97" height="240.08" rx="5.99" fill="url(#sp7)" opacity="0.55"/>
        <ellipse cx="0" cy="116.96" rx="71.82" ry="27.7" fill="url(#lu10)"/>
        <rect x="-171" y="18.47" width="342" height="153.9" fill="url(#sd8)"/>
        <rect x="-201.78" y="-246.24" width="403.56" height="2407.8" fill="#2A211A" opacity="0.15"/>
      </g>
      <path d="M -85.5 135.43 C -85.5 -12.31, -70.11 -101.57, -25.65 -141.59 Q 0 -156.98, 25.65 -141.59 C 70.11 -101.57, 85.5 -12.31, 85.5 135.43 C 54.72 160.06, -54.72 160.06, -85.5 135.43 Z" fill="none" stroke="#FFF6EC" stroke-opacity="0.4" stroke-width="1.88"/>
    </g>
    <g transform="translate(385.4 715) rotate(-13)">
      <ellipse cx="81.24" cy="36.45" rx="227" ry="328.05" fill="url(#cs22)"/>
      <g clip-path="url(#fc12)">
        <rect x="-238.95" y="-364.5" width="477.9" height="2829" fill="url(#fg14)"/>
        <rect x="-238.95" y="-364.5" width="477.9" height="2829" fill="url(#fd15)"/>
        <ellipse cx="-81.24" cy="36.45" rx="47.79" ry="255.15" fill="#FBEADC" opacity="0.28"/>
        <rect x="-238.95" y="-291.6" width="477.9" height="2464.5" fill="#2A211A" opacity="0.07"/>
      </g>
      <path d="M -119.47 2100 L -119.47 -72.9 C -119.47 -145.8, -71.68 -204.12, 0 -204.12 C 71.68 -204.12, 119.47 -145.8, 119.47 -72.9 L 119.47 2100 Z" fill="none" stroke="#FBEADC" stroke-opacity="0.3" stroke-width="2.02"/>
      <ellipse cx="0" cy="182.25" rx="125.55" ry="58.32" fill="url(#cu20)"/>
      <g clip-path="url(#nc13)">
        <rect x="-202.5" y="-364.5" width="405" height="729" fill="url(#ng16)"/>
        <ellipse cx="-32.4" cy="-72.9" rx="93.15" ry="182.25" fill="url(#sh17)" transform="rotate(-8 -32.4 -72.9)"/>
        <rect x="22.27" y="-153.09" width="14.18" height="284.31" rx="7.09" fill="url(#sp18)" opacity="0.55"/>
        <ellipse cx="0" cy="138.51" rx="85.05" ry="32.8" fill="url(#lu21)"/>
        <rect x="-202.5" y="21.87" width="405" height="182.25" fill="url(#sd19)"/>
        <rect x="-238.95" y="-291.6" width="477.9" height="2464.5" fill="#2A211A" opacity="0.07"/>
      </g>
      <path d="M -101.25 160.38 C -101.25 -14.58, -83.02 -120.29, -30.38 -167.67 Q 0 -185.9, 30.38 -167.67 C 83.02 -120.29, 101.25 -14.58, 101.25 160.38 C 64.8 189.54, -64.8 189.54, -101.25 160.38 Z" fill="none" stroke="#FFF6EC" stroke-opacity="0.4" stroke-width="2.23"/>
    </g>
    <g transform="translate(620 665) rotate(0)">
      <ellipse cx="90.27" cy="40.5" rx="252.22" ry="364.5" fill="url(#cs33)"/>
      <g clip-path="url(#fc23)">
        <rect x="-265.5" y="-405" width="531" height="2910" fill="url(#fg25)"/>
        <rect x="-265.5" y="-405" width="531" height="2910" fill="url(#fd26)"/>
        <ellipse cx="-90.27" cy="40.5" rx="53.1" ry="283.5" fill="#FBEADC" opacity="0.28"/>
        
      </g>
      <path d="M -132.75 2100 L -132.75 -81 C -132.75 -162, -79.65 -226.8, 0 -226.8 C 79.65 -226.8, 132.75 -162, 132.75 -81 L 132.75 2100 Z" fill="none" stroke="#FBEADC" stroke-opacity="0.3" stroke-width="2.25"/>
      <ellipse cx="0" cy="202.5" rx="139.5" ry="64.8" fill="url(#cu31)"/>
      <g clip-path="url(#nc24)">
        <rect x="-225" y="-405" width="450" height="810" fill="url(#ng27)"/>
        <ellipse cx="-36" cy="-81" rx="103.5" ry="202.5" fill="url(#sh28)" transform="rotate(-8 -36 -81)"/>
        <rect x="24.75" y="-170.1" width="15.75" height="315.9" rx="7.88" fill="url(#sp29)" opacity="0.55"/>
        <ellipse cx="0" cy="153.9" rx="94.5" ry="36.45" fill="url(#lu32)"/>
        <rect x="-225" y="24.3" width="450" height="202.5" fill="url(#sd30)"/>
        
      </g>
      <path d="M -112.5 178.2 C -112.5 -16.2, -92.25 -133.65, -33.75 -186.3 Q 0 -206.55, 33.75 -186.3 C 92.25 -133.65, 112.5 -16.2, 112.5 178.2 C 72 210.6, -72 210.6, -112.5 178.2 Z" fill="none" stroke="#FFF6EC" stroke-opacity="0.4" stroke-width="2.47"/>
    </g>
    <g transform="translate(850 720) rotate(13)">
      <ellipse cx="80.34" cy="36.05" rx="224.48" ry="324.4" fill="url(#cs44)"/>
      <g clip-path="url(#fc34)">
        <rect x="-236.29" y="-360.45" width="472.59" height="2820.9" fill="url(#fg36)"/>
        <rect x="-236.29" y="-360.45" width="472.59" height="2820.9" fill="url(#fd37)"/>
        <ellipse cx="-80.34" cy="36.05" rx="47.26" ry="252.31" fill="#FBEADC" opacity="0.28"/>
        <rect x="-236.29" y="-288.36" width="472.59" height="2460.45" fill="#2A211A" opacity="0.07"/>
      </g>
      <path d="M -118.15 2100 L -118.15 -72.09 C -118.15 -144.18, -70.89 -201.85, 0 -201.85 C 70.89 -201.85, 118.15 -144.18, 118.15 -72.09 L 118.15 2100 Z" fill="none" stroke="#FBEADC" stroke-opacity="0.3" stroke-width="2"/>
      <ellipse cx="0" cy="180.22" rx="124.16" ry="57.67" fill="url(#cu42)"/>
      <g clip-path="url(#nc35)">
        <rect x="-200.25" y="-360.45" width="400.5" height="720.9" fill="url(#ng38)"/>
        <ellipse cx="-32.04" cy="-72.09" rx="92.12" ry="180.22" fill="url(#sh39)" transform="rotate(-8 -32.04 -72.09)"/>
        <rect x="22.03" y="-151.39" width="14.02" height="281.15" rx="7.01" fill="url(#sp40)" opacity="0.55"/>
        <ellipse cx="0" cy="136.97" rx="84.11" ry="32.44" fill="url(#lu43)"/>
        <rect x="-200.25" y="21.63" width="400.5" height="180.22" fill="url(#sd41)"/>
        <rect x="-236.29" y="-288.36" width="472.59" height="2460.45" fill="#2A211A" opacity="0.07"/>
      </g>
      <path d="M -100.13 158.6 C -100.13 -14.42, -82.1 -118.95, -30.04 -165.81 Q 0 -183.83, 30.04 -165.81 C 82.1 -118.95, 100.13 -14.42, 100.13 158.6 C 64.08 187.43, -64.08 187.43, -100.13 158.6 Z" fill="none" stroke="#FFF6EC" stroke-opacity="0.4" stroke-width="2.2"/>
    </g>
    <g transform="translate(1075.4 815) rotate(24)">
      <ellipse cx="66.8" cy="29.97" rx="186.65" ry="269.73" fill="url(#cs55)"/>
      <g clip-path="url(#fc45)">
        <rect x="-196.47" y="-299.7" width="392.94" height="2699.4" fill="url(#fg47)"/>
        <rect x="-196.47" y="-299.7" width="392.94" height="2699.4" fill="url(#fd48)"/>
        <ellipse cx="-66.8" cy="29.97" rx="39.29" ry="209.79" fill="#FBEADC" opacity="0.28"/>
        <rect x="-196.47" y="-239.76" width="392.94" height="2399.7" fill="#2A211A" opacity="0.16"/>
      </g>
      <path d="M -98.23 2100 L -98.23 -59.94 C -98.23 -119.88, -58.94 -167.83, 0 -167.83 C 58.94 -167.83, 98.23 -119.88, 98.23 -59.94 L 98.23 2100 Z" fill="none" stroke="#FBEADC" stroke-opacity="0.3" stroke-width="1.67"/>
      <ellipse cx="0" cy="149.85" rx="103.23" ry="47.95" fill="url(#cu53)"/>
      <g clip-path="url(#nc46)">
        <rect x="-166.5" y="-299.7" width="333" height="599.4" fill="url(#ng49)"/>
        <ellipse cx="-26.64" cy="-59.94" rx="76.59" ry="149.85" fill="url(#sh50)" transform="rotate(-8 -26.64 -59.94)"/>
        <rect x="18.32" y="-125.87" width="11.66" height="233.77" rx="5.83" fill="url(#sp51)" opacity="0.55"/>
        <ellipse cx="0" cy="113.89" rx="69.93" ry="26.97" fill="url(#lu54)"/>
        <rect x="-166.5" y="17.98" width="333" height="149.85" fill="url(#sd52)"/>
        <rect x="-196.47" y="-239.76" width="392.94" height="2399.7" fill="#2A211A" opacity="0.16"/>
      </g>
      <path d="M -83.25 131.87 C -83.25 -11.99, -68.27 -98.9, -24.97 -137.86 Q 0 -152.85, 24.97 -137.86 C 68.27 -98.9, 83.25 -11.99, 83.25 131.87 C 53.28 155.84, -53.28 155.84, -83.25 131.87 Z" fill="none" stroke="#FFF6EC" stroke-opacity="0.4" stroke-width="1.83"/>
    </g><rect width="1200" height="1500" fill="url(#vig)"/></svg>