<svg xmlns="http://www.w3.org/2000/svg" viewBox="0 0 1200 1500" width="1200" height="1500" role="img" preserveAspectRatio="xMidYMid slice"><defs><linearGradient id="bg" x1="0.24" y1="0.08" x2="0.76" y2="0.92"><stop offset="0%" stop-color="#EDE4D6"/><stop offset="100%" stop-color="#D5C6B2"/></linearGradient><radialGradient id="glow" cx="0.38" cy="0.26" r="0.72"><stop offset="0%" stop-color="#FFF4EA" stop-opacity="0.68"/><stop offset="100%" stop-color="#FFF4EA" stop-opacity="0"/></radialGradient><radialGradient id="vig" cx="0.5" cy="0.44" r="0.8"><stop offset="52%" stop-color="#000000" stop-opacity="0"/><stop offset="100%" stop-color="#000000" stop-opacity="0.14"/></radialGradient><clipPath id="fc1"><path d="M -98.87 2100 L -98.87 -60.33 C -98.87 -120.66, -59.32 -168.92, 0 -168.92 C 59.32 -168.92, 98.87 -120.66, 98.87 -60.33 L 98.87 2100 Z"/></clipPath><clipPath id="nc2"><path d="M -83.79 132.72 C -83.79 -12.07, -68.71 -99.54, -25.14 -138.76 Q 0 -153.84, 25.14 -138.76 C 68.71 -99.54, 83.79 -12.07, 83.79 132.72 C 53.63 156.85, -53.63 156.85, -83.79 132.72 Z"/></clipPath><linearGradient id="fg3" x1="0.01" y1="0.4" x2="0.99" y2="0.6"><stop offset="0%" stop-color="#F0D5B6"/><stop offset="22%" stop-color="#D9B694"/><stop offset="62%" stop-color="#C29A76"/><stop offset="100%" stop-color="#9C7452"/></linearGradient><linearGradient id="fd4" x1="0.5" y1="0" x2="0.5" y2="1"><stop offset="0%" stop-color="#9C7452" stop-opacity="0"/><stop offset="62%" stop-color="#9C7452" stop-opacity="0.18"/><stop offset="100%" stop-color="#2A1E16" stop-opacity="0.44"/></linearGradient><linearGradient id="ng5" x1="0.53" y1="0" x2="0.47" y2="1"><stop offset="0%" stop-color="#DDCBBA"/><stop offset="50%" stop-color="#C3AC95"/><stop offset="100%" stop-color="#9E8672"/></linearGradient><linearGradient id="sh6" x1="0.4" y1="0.01" x2="0.6" y2="0.99"><stop offset="0%" stop-color="#ffffff" stop-opacity="0.7"/><stop offset="50%" stop-color="#ffffff" stop-opacity="0.14"/><stop offset="100%" stop-color="#ffffff" stop-opacity="0"/></linearGradient><linearGradient id="sp7" x1="0.5" y1="0" x2="0.5" y2="1"><stop offset="0%" stop-color="#ffffff" stop-opacity="0"/><stop offset="40%" stop-color="#ffffff" stop-opacity="0.8"/><stop offset="100%" stop-color="#ffffff" stop-opacity="0"/></linearGradient><linearGradient id="sd8" x1="0.5" y1="0" x2="0.5" y2="1"><stop offset="0%" stop-color="#1B1512" stop-opacity="0"/><stop offset="100%" stop-color="#1B1512" stop-opacity="0.11"/></linearGradient><radialGradient id="cu9" cx="0.5" cy="0.5" r="0.5"><stop offset="0%" stop-color="#3A2A20" stop-opacity="0.34"/><stop offset="100%" stop-color="#3A2A20" stop-opacity="0"/></radialGradient><radialGradient id="lu10" cx="0.5" cy="0.5" r="0.5"><stop offset="0%" stop-color="#FFFFFF" stop-opacity="0.2"/><stop offset="100%" stop-color="#FFFFFF" stop-opacity="0"/></radialGradient><radialGradient id="cs11" cx="0.5" cy="0.5" r="0.5"><stop offset="0%" stop-color="#2A211A" stop-opacity="0.44"/><stop offset="100%" stop-color="#2A211A" stop-opacity="0"/></radialGradient><clipPath id="fc12"><path d="M -117.09 2100 L -117.09 -71.44 C -117.09 -142.88, -70.25 -200.04, 0 -200.04 C 70.25 -200.04, 117.09 -142.88, 117.09 -71.44 L 117.09 2100 Z"/></clipPath><clipPath id="nc13"><path d="M -99.23 157.17 C -99.23 -14.29, -81.36 -117.88, -29.77 -164.32 Q 0 -182.18, 29.77 -164.32 C 81.36 -117.88, 99.23 -14.29, 99.23 157.17 C 63.5 185.75, -63.5 185.75, -99.23 157.17 Z"/></clipPath><linearGradient id="fg14" x1="0.01" y1="0.4" x2="0.99" y2="0.6"><stop offset="0%" stop-color="#F0D5B6"/><stop offset="22%" stop-color="#D9B694"/><stop offset="62%" stop-color="#C29A76"/><stop offset="100%" stop-color="#9C7452"/></linearGradient><linearGradient id="fd15" x1="0.5" y1="0" x2="0.5" y2="1"><stop offset="0%" stop-color="#9C7452" stop-opacity="0"/><stop offset="62%" stop-color="#9C7452" stop-opacity="0.18"/><stop offset="100%" stop-color="#2A1E16" stop-opacity="0.44"/></linearGradient><linearGradient id="ng16" x1="0.61" y1="0.01" x2="0.39" y2="0.99"><stop offset="0%" stop-color="#DDCBBA"/><stop offset="50%" stop-color="#C3AC95"/><stop offset="100%" stop-color="#9E8672"/></linearGradient><linearGradient id="sh17" x1="0.4" y1="0.01" x2="0.6" y2="0.99"><stop offset="0%" stop-color="#ffffff" stop-opacity="0.7"/><stop offset="50%" stop-color="#ffffff" stop-opacity="0.14"/><stop offset="100%" stop-color="#ffffff" stop-opacity="0"/></linearGradient><linearGradient id="sp18" x1="0.5" y1="0" x2="0.5" y2="1"><stop offset="0%" stop-color="#ffffff" stop-opacity="0"/><stop offset="40%" stop-color="#ffffff" stop-opacity="0.8"/><stop offset="100%" stop-color="#ffffff" stop-opacity="0"/></linearGradient><linearGradient id="sd19" x1="0.5" y1="0" x2="0.5" y2="1"><stop offset="0%" stop-color="#1B1512" stop-opacity="0"/><stop offset="100%" stop-color="#1B1512" stop-opacity="0.11"/></linearGradient><radialGradient id="cu20" cx="0.5" cy="0.5" r="0.5"><stop offset="0%" stop-color="#3A2A20" stop-opacity="0.34"/><stop offset="100%" stop-color="#3A2A20" stop-opacity="0"/></radialGradient><radialGradient id="lu21" cx="0.5" cy="0.5" r="0.5"><stop offset="0%" stop-color="#FFFFFF" stop-opacity="0.2"/><stop offset="100%" stop-color="#FFFFFF" stop-opacity="0"/></radialGradient><radialGradient id="cs22" cx="0.5" cy="0.5" r="0.5"><stop offset="0%" stop-color="#2A211A" stop-opacity="0.44"/><stop offset="100%" stop-color="#2A211A" stop-opacity="0"/></radialGradient><clipPath id="fc23"><path d="M -130.09 2100 L -130.09 -79.38 C -130.09 -158.76, -78.06 -222.26, 0 -222.26 C 78.06 -222.26, 130.09 -158.76, 130.09 -79.38 L 130.09 2100 Z"/></clipPath><clipPath id="nc24"><path d="M -110.25 174.64 C -110.25 -15.88, -90.41 -130.98, -33.07 -182.57 Q 0 -202.42, 33.07 -182.57 C 90.41 -130.98, 110.25 -15.88, 110.25 174.64 C 70.56 206.39, -70.56 206.39, -110.25 174.64 Z"/></clipPath><linearGradient id="fg25" x1="0.01" y1="0.4" x2="0.99" y2="0.6"><stop offset="0%" stop-color="#F0D5B6"/><stop offset="22%" stop-color="#D9B694"/><stop offset="62%" stop-color="#C29A76"/><stop offset="100%" stop-color="#9C7452"/></linearGradient><linearGradient id="fd26" x1="0.5" y1="0" x2="0.5" y2="1"><stop offset="0%" stop-color="#9C7452" stop-opacity="0"/><stop offset="62%" stop-color="#9C7452" stop-opacity="0.18"/><stop offset="100%" stop-color="#2A1E16" stop-opacity="0.44"/></linearGradient><linearGradient id="ng27" x1="0.69" y1="0.04" x2="0.31" y2="0.96"><stop offset="0%" stop-color="#DDCBBA"/><stop offset="50%" stop-color="#C3AC95"/><stop offset="100%" stop-color="#9E8672"/></linearGradient><linearGradient id="sh28" x1="0.4" y1="0.01" x2="0.6" y2="0.99"><stop offset="0%" stop-color="#ffffff" stop-opacity="0.7"/><stop offset="50%" stop-color="#ffffff" stop-opacity="0.14"/><stop offset="100%" stop-color="#ffffff" stop-opacity="0"/></linearGradient><linearGradient id="sp29" x1="0.5" y1="0" x2="0.5" y2="1"><stop offset="0%" stop-color="#ffffff" stop-opacity="0"/><stop offset="40%" stop-color="#ffffff" stop-opacity="0.8"/><stop offset="100%" stop-color="#ffffff" stop-opacity="0"/></linearGradient><linearGradient id="sd30" x1="0.5" y1="0" x2="0.5" y2="1"><stop offset="0%" stop-color="#1B1512" stop-opacity="0"/><stop offset="100%" stop-color="#1B1512" stop-opacity="0.11"/></linearGradient><radialGradient id="cu31" cx="0.5" cy="0.5" r="0.5"><stop offset="0%" stop-color="#3A2A20" stop-opacity="0.34"/><stop offset="100%" stop-color="#3A2A20" stop-opacity="0"/></radialGradient><radialGradient id="lu32" cx="0.5" cy="0.5" r="0.5"><stop offset="0%" stop-color="#FFFFFF" stop-opacity="0.2"/><stop offset="100%" stop-color="#FFFFFF" stop-opacity="0"/></radialGradient><radialGradient id="cs33" cx="0.5" cy="0.5" r="0.5"><stop offset="0%" stop-color="#2A211A" stop-opacity="0.44"/><stop offset="100%" stop-color="#2A211A" stop-opacity="0"/></radialGradient><clipPath id="fc34"><path d="M -115.78 2100 L -115.78 -70.65 C -115.78 -141.3, -69.47 -197.81, 0 -197.81 C 69.47 -197.81, 115.78 -141.3, 115.78 -70.65 L 115.78 2100 Z"/></clipPath><clipPath id="nc35"><path d="M -98.12 155.43 C -98.12 -14.13, -80.46 -116.57, -29.44 -162.49 Q 0 -180.15, 29.44 -162.49 C 80.46 -116.57, 98.12 -14.13, 98.12 155.43 C 62.8 183.69, -62.8 183.69, -98.12 155.43 Z"/></clipPath><linearGradient id="fg36" x1="0.01" y1="0.4" x2="0.99" y2="0.6"><stop offset="0%" stop-color="#F0D5B6"/><stop offset="22%" stop-color="#D9B694"/><stop offset="62%" stop-color="#C29A76"/><stop offset="100%" stop-color="#9C7452"/></linearGradient><linearGradient id="fd37" x1="0.5" y1="0" x2="0.5" y2="1"><stop offset="0%" stop-color="#9C7452" stop-opacity="0"/><stop offset="62%" stop-color="#9C7452" stop-opacity="0.18"/><stop offset="100%" stop-color="#2A1E16" stop-opacity="0.44"/></linearGradient><linearGradient id="ng38" x1="0.76" y1="0.07" x2="0.24" y2="0.93"><stop offset="0%" stop-color="#DDCBBA"/><stop offset="50%" stop-color="#C3AC95"/><stop offset="100%" stop-color="#9E8672"/></linearGradient><linearGradient id="sh39" x1="0.4" y1="0.01" x2="0.6" y2="0.99"><stop offset="0%" stop-color="#ffffff" stop-opacity="0.7"/><stop offset="50%" stop-color="#ffffff" stop-opacity="0.14"/><stop offset="100%" stop-color="#ffffff" stop-opacity="0"/></linearGradient><linearGradient id="sp40" x1="0.5" y1="0" x2="0.5" y2="1"><stop offset="0%" stop-color="#ffffff" stop-opacity="0"/><stop offset="40%" stop-color="#ffffff" stop-opacity="0.8"/><stop offset="100%" stop-color="#ffffff" stop-opacity="0"/></linearGradient><linearGradient id="sd41" x1="0.5" y1="0" x2="0.5" y2="1"><stop offset="0%" stop-color="#1B1512" stop-opacity="0"/><stop offset="100%" stop-color="#1B1512" stop-opacity="0.11"/></linearGradient><radialGradient id="cu42" cx="0.5" cy="0.5" r="0.5"><stop offset="0%" stop-color="#3A2A20" stop-opacity="0.34"/><stop offset="100%" stop-color="#3A2A20" stop-opacity="0"/></radialGradient><radialGradient id="lu43" cx="0.5" cy="0.5" r="0.5"><stop offset="0%" stop-color="#FFFFFF" stop-opacity="0.2"/><stop offset="100%" stop-color="#FFFFFF" stop-opacity="0"/></radialGradient><radialGradient id="cs44" cx="0.5" cy="0.5" r="0.5"><stop offset="0%" stop-color="#2A211A" stop-opacity="0.44"/><stop offset="100%" stop-color="#2A211A" stop-opacity="0"/></radialGradient><clipPath id="fc45"><path d="M -96.27 2100 L -96.27 -58.74 C -96.27 -117.48, -57.76 -164.48, 0 -164.48 C 57.76 -164.48, 96.27 -117.48, 96.27 -58.74 L 96.27 2100 Z"/></clipPath><clipPath id="nc46"><path d="M -81.58 129.23 C -81.58 -11.75, -66.9 -96.92, -24.48 -135.1 Q 0 -149.79, 24.48 -135.1 C 66.9 -96.92, 81.58 -11.75, 81.58 129.23 C 52.21 152.73, -52.21 152.73, -81.58 129.23 Z"/></clipPath><linearGradient id="fg47" x1="0.01" y1="0.4" x2="0.99" y2="0.6"><stop offset="0%" stop-color="#F0D5B6"/><stop offset="22%" stop-color="#D9B694"/><stop offset="62%" stop-color="#C29A76"/><stop offset="100%" stop-color="#9C7452"/></linearGradient><linearGradient id="fd48" x1="0.5" y1="0" x2="0.5" y2="1"><stop offset="0%" stop-color="#9C7452" stop-opacity="0"/><stop offset="62%" stop-color="#9C7452" stop-opacity="0.18"/><stop offset="100%" stop-color="#2A1E16" stop-opacity="0.44"/></linearGradient><linearGradient id="ng49" x1="0.82" y1="0.12" x2="0.18" y2="0.88"><stop offset="0%" stop-color="#DDCBBA"/><stop offset="50%" stop-color="#C3AC95"/><stop offset="100%" stop-color="#9E8672"/></linearGradient><linearGradient id="sh50" x1="0.4" y1="0.01" x2="0.6" y2="0.99"><stop offset="0%" stop-color="#ffffff" stop-opacity="0.7"/><stop offset="50%" stop-color="#ffffff" stop-opacity="0.14"/><stop offset="100%" stop-color="#ffffff" stop-opacity="0"/></linearGradient><linearGradient id="sp51" x1="0.5" y1="0" x2="0.5" y2="1"><stop offset="0%" stop-color="#ffffff" stop-opacity="0"/><stop offset="40%" stop-color="#ffffff" stop-opacity="0.8"/><stop offset="100%" stop-color="#ffffff" stop-opacity="0"/></linearGradient><linearGradient id="sd52" x1="0.5" y1="0" x2="0.5" y2="1"><stop offset="0%" stop-color="#1B1512" stop-opacity="0"/><stop offset="100%" stop-color="#1B1512" stop-opacity="0.11"/></linearGradient><radialGradient id="cu53" cx="0.5" cy="0.5" r="0.5"><stop offset="0%" stop-color="#3A2A20" stop-opacity="0.34"/><stop offset="100%" stop-color="#3A2A20" stop-opacity="0"/></radialGradient><radialGradient id="lu54" cx="0.5" cy="0.5" r="0.5"><stop offset="0%" stop-color="#FFFFFF" stop-opacity="0.2"/><stop offset="100%" stop-color="#FFFFFF" stop-opacity="0"/></radialGradient><radialGradient id="cs55" cx="0.5" cy="0.5" r="0.5"><stop offset="0%" stop-color="#2A211A" stop-opacity="0.44"/><stop offset="100%" stop-color="#2A211A" stop-opacity="0"/></radialGradient></defs><rect width="1200" height="1500" fill="url(#bg)"/><rect width="1200" height="1500" fill="url(#glow)"/><circle cx="600" cy="690" r="430" fill="none" stroke="#191817" stroke-opacity="0.11" stroke-width="1"/>
    <g transform="translate(144.69 822.9) rotate(-25)">
      <ellipse cx="67.23" cy="30.16" rx="187.86" ry="271.48" fill="url(#cs11)"/>
      <g clip-path="url(#fc1)">
        <rect x="-197.74" y="-301.64" width="395.49" height="2703.29" fill="url(#fg3)"/>
        <rect x="-197.74" y="-301.64" width="395.49" height="2703.29" fill="url(#fd4)"/>
        <ellipse cx="-67.23" cy="30.16" rx="39.55" ry="211.15" fill="#F0D5B6" opacity="0.28"/>
        <rect x="-197.74" y="-241.32" width="395.49" height="2401.64" fill="#2A211A" opacity="0.15"/>
      </g>
      <path d="M -98.87 2100 L -98.87 -60.33 C -98.87 -120.66, -59.32 -168.92, 0 -168.92 C 59.32 -168.92, 98.87 -120.66, 98.87 -60.33 L 98.87 2100 Z" fill="none" stroke="#F0D5B6" stroke-opacity="0.3" stroke-width="1.68"/>
      <ellipse cx="0" cy="150.82" rx="103.9" ry="48.26" fill="url(#cu9)"/>
      <g clip-path="url(#nc2)">
        <rect x="-167.58" y="-301.64" width="335.16" height="603.29" fill="url(#ng5)"/>
        <ellipse cx="-26.81" cy="-60.33" rx="77.09" ry="150.82" fill="url(#sh6)" transform="rotate(-8 -26.81 -60.33)"/>
        <rect x="18.43" y="-126.69" width="11.73" height="235.28" rx="5.87" fill="url(#sp7)" opacity="0.55"/>
        <ellipse cx="0" cy="114.62" rx="70.38" ry="27.15" fill="url(#lu10)"/>
        <rect x="-167.58" y="18.1" width="335.16" height="150.82" fill="url(#sd8)"/>
        <rect x="-197.74" y="-241.32" width="395.49" height="2401.64" fill="#2A211A" opacity="0.15"/>
      </g>
      <path d="M -83.79 132.72 C -83.79 -12.07, -68.71 -99.54, -25.14 -138.76 Q 0 -153.84, 25.14 -138.76 C 68.71 -99.54, 83.79 -12.07, 83.79 132.72 C 53.63 156.85, -53.63 156.85, -83.79 132.72 Z" fill="none" stroke="#F8ECE0" stroke-opacity="0.4" stroke-width="1.84"/>
    </g>
    <g transform="translate(370.09 734.7) rotate(-13)">
      <ellipse cx="79.62" cy="35.72" rx="222.46" ry="321.49" fill="url(#cs22)"/>
      <g clip-path="url(#fc12)">
        <rect x="-234.17" y="-357.21" width="468.34" height="2814.42" fill="url(#fg14)"/>
        <rect x="-234.17" y="-357.21" width="468.34" height="2814.42" fill="url(#fd15)"/>
        <ellipse cx="-79.62" cy="35.72" rx="46.83" ry="250.05" fill="#F0D5B6" opacity="0.28"/>
        <rect x="-234.17" y="-285.77" width="468.34" height="2457.21" fill="#2A211A" opacity="0.07"/>
      </g>
      <path d="M -117.09 2100 L -117.09 -71.44 C -117.09 -142.88, -70.25 -200.04, 0 -200.04 C 70.25 -200.04, 117.09 -142.88, 117.09 -71.44 L 117.09 2100 Z" fill="none" stroke="#F0D5B6" stroke-opacity="0.3" stroke-width="1.98"/>
      <ellipse cx="0" cy="178.61" rx="123.04" ry="57.15" fill="url(#cu20)"/>
      <g clip-path="url(#nc13)">
        <rect x="-198.45" y="-357.21" width="396.9" height="714.42" fill="url(#ng16)"/>
        <ellipse cx="-31.75" cy="-71.44" rx="91.29" ry="178.61" fill="url(#sh17)" transform="rotate(-8 -31.75 -71.44)"/>
        <rect x="21.83" y="-150.03" width="13.89" height="278.62" rx="6.95" fill="url(#sp18)" opacity="0.55"/>
        <ellipse cx="0" cy="135.74" rx="83.35" ry="32.15" fill="url(#lu21)"/>
        <rect x="-198.45" y="21.43" width="396.9" height="178.61" fill="url(#sd19)"/>
        <rect x="-234.17" y="-285.77" width="468.34" height="2457.21" fill="#2A211A" opacity="0.07"/>
      </g>
      <path d="M -99.23 157.17 C -99.23 -14.29, -81.36 -117.88, -29.77 -164.32 Q 0 -182.18, 29.77 -164.32 C 81.36 -117.88, 99.23 -14.29, 99.23 157.17 C 63.5 185.75, -63.5 185.75, -99.23 157.17 Z" fill="none" stroke="#F8ECE0" stroke-opacity="0.4" stroke-width="2.18"/>
    </g>
    <g transform="translate(600 685.7) rotate(0)">
      <ellipse cx="88.46" cy="39.69" rx="247.18" ry="357.21" fill="url(#cs33)"/>
      <g clip-path="url(#fc23)">
        <rect x="-260.19" y="-396.9" width="520.38" height="2893.8" fill="url(#fg25)"/>
        <rect x="-260.19" y="-396.9" width="520.38" height="2893.8" fill="url(#fd26)"/>
        <ellipse cx="-88.46" cy="39.69" rx="52.04" ry="277.83" fill="#F0D5B6" opacity="0.28"/>
        
      </g>
      <path d="M -130.09 2100 L -130.09 -79.38 C -130.09 -158.76, -78.06 -222.26, 0 -222.26 C 78.06 -222.26, 130.09 -158.76, 130.09 -79.38 L 130.09 2100 Z" fill="none" stroke="#F0D5B6" stroke-opacity="0.3" stroke-width="2.21"/>
      <ellipse cx="0" cy="198.45" rx="136.71" ry="63.5" fill="url(#cu31)"/>
      <g clip-path="url(#nc24)">
        <rect x="-220.5" y="-396.9" width="441" height="793.8" fill="url(#ng27)"/>
        <ellipse cx="-35.28" cy="-79.38" rx="101.43" ry="198.45" fill="url(#sh28)" transform="rotate(-8 -35.28 -79.38)"/>
        <rect x="24.25" y="-166.7" width="15.44" height="309.58" rx="7.72" fill="url(#sp29)" opacity="0.55"/>
        <ellipse cx="0" cy="150.82" rx="92.61" ry="35.72" fill="url(#lu32)"/>
        <rect x="-220.5" y="23.81" width="441" height="198.45" fill="url(#sd30)"/>
        
      </g>
      <path d="M -110.25 174.64 C -110.25 -15.88, -90.41 -130.98, -33.07 -182.57 Q 0 -202.42, 33.07 -182.57 C 90.41 -130.98, 110.25 -15.88, 110.25 174.64 C 70.56 206.39, -70.56 206.39, -110.25 174.64 Z" fill="none" stroke="#F8ECE0" stroke-opacity="0.4" stroke-width="2.43"/>
    </g>
    <g transform="translate(825.4 739.6) rotate(13)">
      <ellipse cx="78.73" cy="35.32" rx="219.99" ry="317.92" fill="url(#cs44)"/>
      <g clip-path="url(#fc34)">
        <rect x="-231.57" y="-353.24" width="463.14" height="2806.48" fill="url(#fg36)"/>
        <rect x="-231.57" y="-353.24" width="463.14" height="2806.48" fill="url(#fd37)"/>
        <ellipse cx="-78.73" cy="35.32" rx="46.31" ry="247.27" fill="#F0D5B6" opacity="0.28"/>
        <rect x="-231.57" y="-282.59" width="463.14" height="2453.24" fill="#2A211A" opacity="0.07"/>
      </g>
      <path d="M -115.78 2100 L -115.78 -70.65 C -115.78 -141.3, -69.47 -197.81, 0 -197.81 C 69.47 -197.81, 115.78 -141.3, 115.78 -70.65 L 115.78 2100 Z" fill="none" stroke="#F0D5B6" stroke-opacity="0.3" stroke-width="1.96"/>
      <ellipse cx="0" cy="176.62" rx="121.67" ry="56.52" fill="url(#cu42)"/>
      <g clip-path="url(#nc35)">
        <rect x="-196.25" y="-353.24" width="392.49" height="706.48" fill="url(#ng38)"/>
        <ellipse cx="-31.4" cy="-70.65" rx="90.27" ry="176.62" fill="url(#sh39)" transform="rotate(-8 -31.4 -70.65)"/>
        <rect x="21.59" y="-148.36" width="13.74" height="275.53" rx="6.87" fill="url(#sp40)" opacity="0.55"/>
        <ellipse cx="0" cy="134.23" rx="82.42" ry="31.79" fill="url(#lu43)"/>
        <rect x="-196.25" y="21.19" width="392.49" height="176.62" fill="url(#sd41)"/>
        <rect x="-231.57" y="-282.59" width="463.14" height="2453.24" fill="#2A211A" opacity="0.07"/>
      </g>
      <path d="M -98.12 155.43 C -98.12 -14.13, -80.46 -116.57, -29.44 -162.49 Q 0 -180.15, 29.44 -162.49 C 80.46 -116.57, 98.12 -14.13, 98.12 155.43 C 62.8 183.69, -62.8 183.69, -98.12 155.43 Z" fill="none" stroke="#F8ECE0" stroke-opacity="0.4" stroke-width="2.16"/>
    </g>
    <g transform="translate(1046.29 832.7) rotate(24)">
      <ellipse cx="65.46" cy="29.37" rx="182.91" ry="264.34" fill="url(#cs55)"/>
      <g clip-path="url(#fc45)">
        <rect x="-192.54" y="-293.71" width="385.08" height="2687.41" fill="url(#fg47)"/>
        <rect x="-192.54" y="-293.71" width="385.08" height="2687.41" fill="url(#fd48)"/>
        <ellipse cx="-65.46" cy="29.37" rx="38.51" ry="205.59" fill="#F0D5B6" opacity="0.28"/>
        <rect x="-192.54" y="-234.96" width="385.08" height="2393.71" fill="#2A211A" opacity="0.16"/>
      </g>
      <path d="M -96.27 2100 L -96.27 -58.74 C -96.27 -117.48, -57.76 -164.48, 0 -164.48 C 57.76 -164.48, 96.27 -117.48, 96.27 -58.74 L 96.27 2100 Z" fill="none" stroke="#F0D5B6" stroke-opacity="0.3" stroke-width="1.63"/>
      <ellipse cx="0" cy="146.85" rx="101.17" ry="46.99" fill="url(#cu53)"/>
      <g clip-path="url(#nc46)">
        <rect x="-163.17" y="-293.71" width="326.34" height="587.41" fill="url(#ng49)"/>
        <ellipse cx="-26.11" cy="-58.74" rx="75.06" ry="146.85" fill="url(#sh50)" transform="rotate(-8 -26.11 -58.74)"/>
        <rect x="17.95" y="-123.36" width="11.42" height="229.09" rx="5.71" fill="url(#sp51)" opacity="0.55"/>
        <ellipse cx="0" cy="111.61" rx="68.53" ry="26.43" fill="url(#lu54)"/>
        <rect x="-163.17" y="17.62" width="326.34" height="146.85" fill="url(#sd52)"/>
        <rect x="-192.54" y="-234.96" width="385.08" height="2393.71" fill="#2A211A" opacity="0.16"/>
      </g>
      <path d="M -81.58 129.23 C -81.58 -11.75, -66.9 -96.92, -24.48 -135.1 Q 0 -149.79, 24.48 -135.1 C 66.9 -96.92, 81.58 -11.75, 81.58 129.23 C 52.21 152.73, -52.21 152.73, -81.58 129.23 Z" fill="none" stroke="#F8ECE0" stroke-opacity="0.4" stroke-width="1.79"/>
    </g><rect width="1200" height="1500" fill="url(#vig)"/></svg>