<svg xmlns="http://www.w3.org/2000/svg" viewBox="0 0 1000 1400" width="1000" height="1400" role="img" preserveAspectRatio="xMidYMid slice"><defs><linearGradient id="bg" x1="0.24" y1="0.08" x2="0.76" y2="0.92"><stop offset="0%" stop-color="#3D342E"/><stop offset="100%" stop-color="#1E1A17"/></linearGradient><radialGradient id="glow" cx="0.54" cy="0.24" r="0.72"><stop offset="0%" stop-color="#C8B8AA" stop-opacity="0.3"/><stop offset="100%" stop-color="#C8B8AA" stop-opacity="0"/></radialGradient><radialGradient id="vig" cx="0.5" cy="0.44" r="0.8"><stop offset="52%" stop-color="#000000" stop-opacity="0"/><stop offset="100%" stop-color="#000000" stop-opacity="0.42"/></radialGradient><clipPath id="pc1"><path d="M -150 233.2 L -90 -201.4 Q -90 -265, -63 -265 L 63 -265 Q 90 -265, 90 -201.4 L 150 233.2 C 96 275.6, -96 275.6, -150 233.2 Z"/></clipPath><linearGradient id="pg2" x1="0.69" y1="0.04" x2="0.31" y2="0.96"><stop offset="0%" stop-color="#F5F4F2"/><stop offset="25%" stop-color="#C9CED2"/><stop offset="50%" stop-color="#98A0A6"/><stop offset="75%" stop-color="#DCD7D1"/><stop offset="100%" stop-color="#8C9296"/></linearGradient><linearGradient id="ps3" x1="0.31" y1="0.04" x2="0.69" y2="0.96"><stop offset="0%" stop-color="#ffffff" stop-opacity="0.6"/><stop offset="55%" stop-color="#ffffff" stop-opacity="0.1"/><stop offset="100%" stop-color="#ffffff" stop-opacity="0"/></linearGradient><linearGradient id="pp4" x1="0.5" y1="0" x2="0.5" y2="1"><stop offset="0%" stop-color="#ffffff" stop-opacity="0"/><stop offset="42%" stop-color="#ffffff" stop-opacity="0.85"/><stop offset="100%" stop-color="#ffffff" stop-opacity="0"/></linearGradient><radialGradient id="pd5"><stop offset="0%" stop-color="#2A231E" stop-opacity="0.3"/><stop offset="65%" stop-color="#2A231E" stop-opacity="0.09"/><stop offset="100%" stop-color="#2A231E" stop-opacity="0"/></radialGradient><clipPath id="pc6"><path d="M -85 132 L -51 -114 Q -51 -150, -35.7 -150 L 35.7 -150 Q 51 -150, 51 -114 L 85 132 C 54.4 156, -54.4 156, -85 132 Z"/></clipPath><linearGradient id="pg7" x1="0.55" y1="0" x2="0.45" y2="1"><stop offset="0%" stop-color="#514E4A"/><stop offset="50%" stop-color="#262422"/><stop offset="100%" stop-color="#0D0C0C"/></linearGradient><linearGradient id="ps8" x1="0.31" y1="0.04" x2="0.69" y2="0.96"><stop offset="0%" stop-color="#ffffff" stop-opacity="0.6"/><stop offset="55%" stop-color="#ffffff" stop-opacity="0.1"/><stop offset="100%" stop-color="#ffffff" stop-opacity="0"/></linearGradient><linearGradient id="pp9" x1="0.5" y1="0" x2="0.5" y2="1"><stop offset="0%" stop-color="#ffffff" stop-opacity="0"/><stop offset="42%" stop-color="#ffffff" stop-opacity="0.85"/><stop offset="100%" stop-color="#ffffff" stop-opacity="0"/></linearGradient><radialGradient id="pd10"><stop offset="0%" stop-color="#2A231E" stop-opacity="0.3"/><stop offset="65%" stop-color="#2A231E" stop-opacity="0.09"/><stop offset="100%" stop-color="#2A231E" stop-opacity="0"/></radialGradient></defs><rect width="1000" height="1400" fill="url(#bg)"/><rect width="1000" height="1400" fill="url(#glow)"/><path d="M 130 1110 Q 500 880 870 1110" fill="none" stroke="#F4F1EC" stroke-opacity="0.17" stroke-width="1"/>
    <g transform="translate(500 620) rotate(-6)">
      <ellipse cx="30" cy="254.4" rx="246" ry="74.2" fill="url(#pd5)"/>
      <g clip-path="url(#pc1)">
        <rect x="-300" y="-530" width="600" height="1060" fill="url(#pg2)"/>
        <ellipse cx="-51" cy="-58.3" rx="129" ry="227.9" fill="url(#ps3)"/>
        <rect x="30" y="-222.6" width="21" height="424" rx="10.5" fill="url(#pp4)" opacity="0.5"/>
      </g>
      <path d="M -150 233.2 L -90 -201.4 Q -90 -265, -63 -265 L 63 -265 Q 90 -265, 90 -201.4 L 150 233.2 C 96 275.6, -96 275.6, -150 233.2 Z" fill="none" stroke="#FFFFFF" stroke-opacity="0.4" stroke-width="3.3"/>
    </g>
    <g transform="translate(660 1010) rotate(26)">
      <ellipse cx="17" cy="144" rx="139.4" ry="42" fill="url(#pd10)"/>
      <g clip-path="url(#pc6)">
        <rect x="-170" y="-300" width="340" height="600" fill="url(#pg7)"/>
        <ellipse cx="-28.9" cy="-33" rx="73.1" ry="129" fill="url(#ps8)"/>
        <rect x="17" y="-126" width="11.9" height="240" rx="5.95" fill="url(#pp9)" opacity="0.5"/>
      </g>
      <path d="M -85 132 L -51 -114 Q -51 -150, -35.7 -150 L 35.7 -150 Q 51 -150, 51 -114 L 85 132 C 54.4 156, -54.4 156, -85 132 Z" fill="none" stroke="#BDB3A9" stroke-opacity="0.4" stroke-width="1.87"/>
    </g><rect width="1000" height="1400" fill="url(#vig)"/></svg>